<?xml version="1.0" encoding="UTF-8" standalone="no"?>
<svg
   xmlns:dc="http://purl.org/dc/elements/1.1/"
   xmlns:cc="http://creativecommons.org/ns#"
   xmlns:rdf="http://www.w3.org/1999/02/22-rdf-syntax-ns#"
   xmlns:svg="http://www.w3.org/2000/svg"
   xmlns="http://www.w3.org/2000/svg"
   xmlns:sodipodi="http://sodipodi.sourceforge.net/DTD/sodipodi-0.dtd"
   xmlns:inkscape="http://www.inkscape.org/namespaces/inkscape"
   version="1.1"
   id="katman_1"
   x="0px"
   y="0px"
   viewBox="0 0 418.5 167"
   xml:space="preserve"
   sodipodi:docname="icon-affirm.svg"
   width="418.5"
   height="167"
   inkscape:version="1.0.2-2 (e86c870879, 2021-01-15)"><metadata
   id="metadata15"><rdf:RDF><cc:Work
       rdf:about=""><dc:format>image/svg+xml</dc:format><dc:type
         rdf:resource="http://purl.org/dc/dcmitype/StillImage" /></cc:Work></rdf:RDF></metadata><defs
   id="defs13" /><sodipodi:namedview
   pagecolor="#ffffff"
   bordercolor="#666666"
   borderopacity="1"
   objecttolerance="10"
   gridtolerance="10"
   guidetolerance="10"
   inkscape:pageopacity="0"
   inkscape:pageshadow="2"
   inkscape:window-width="1920"
   inkscape:window-height="991"
   id="namedview11"
   showgrid="false"
   inkscape:zoom="1.0261845"
   inkscape:cx="385.68222"
   inkscape:cy="141.00476"
   inkscape:window-x="-9"
   inkscape:window-y="-9"
   inkscape:window-maximized="1"
   inkscape:current-layer="katman_1" />
<style
   type="text/css"
   id="style2">
	.st0{fill-rule:evenodd;clip-rule:evenodd;fill:#060809;}
	.st1{fill-rule:evenodd;clip-rule:evenodd;fill:#4A4AF4;}
</style>
<g
   id="g8"
   transform="translate(-73,-117)">
	<path
   class="st0"
   d="m 107.3,211.1 c -11.3,0 -24.4,5.4 -31.5,11 l 6.5,13.6 c 5.7,-5.2 14.9,-9.6 23.2,-9.6 7.9,0 12.2,2.6 12.2,7.9 0,3.6 -2.9,5.4 -8.3,6.1 C 89,242.7 73,248.3 73,264 c 0,12.4 8.9,20 22.7,20 9.9,0 18.7,-5.5 22.9,-12.7 V 282 H 137 v -44.9 c 0,-18.5 -12.9,-26 -29.7,-26 z m -6.9,58.5 c -5.2,0 -7.8,-2.5 -7.8,-6.7 0,-7.8 8.7,-10.4 24.6,-12.1 0.1,10.4 -7,18.8 -16.8,18.8 z M 310.5,224.7 V 213.1 H 292.1 V 282 h 19.7 v -33.2 c 0,-15.8 9.5,-20.4 16.2,-20.4 2.6,0 6.1,0.8 8.4,2.5 l 3.6,-18.2 c -3,-1.3 -6.2,-1.6 -8.8,-1.6 -10.1,0 -16.5,4.5 -20.7,13.6 z m 120.9,-13.6 c -10.4,0 -18.2,6.2 -22.3,12.1 -3.8,-7.7 -11.7,-12.1 -21.3,-12.1 -10.4,0 -17.6,5.8 -21,12.4 v -10.4 h -19 V 282 h 19.7 v -35.5 c 0,-12.7 6.7,-18.8 12.9,-18.8 5.6,0 10.8,3.6 10.8,13 V 282 H 411 v -35.5 c 0,-12.9 6.5,-18.8 13,-18.8 5.2,0 10.7,3.8 10.7,12.9 V 282 h 19.7 v -47.6 c 0,-15.5 -10.4,-23.3 -23,-23.3 z M 206.6,208 v 5.1 h -29.9 v -7 c 0,-9.1 5.2,-11.7 9.7,-11.7 2.6,0 6,0.6 8.8,2.2 l 6.1,-13.9 c -3.6,-2.1 -9.5,-4 -17.4,-4 -12.6,0 -26.9,7.1 -26.9,29.4 v 5.1 h -11.4 v 15.2 H 157 V 282 h 19.7 v -53.7 h 29.9 V 282 h 19.7 v -53.7 h 17.9 v -15.2 h -17.9 v -7 c 0,-9.1 5.2,-11.7 9.7,-11.7 5,0 8.8,2.2 8.8,2.2 l 6.1,-13.9 c 0,0 -6.2,-4 -17.4,-4 -12.5,-0.1 -26.9,7 -26.9,29.3 z m 49.3,5.1 h 19.7 V 282 h -19.7 z"
   id="path4" />
	<path
   class="st1"
   d="m 370.7,117 c -53.2,0 -100.6,36.9 -114,84.4 H 276 C 287.2,166 325.3,135 370.7,135 c 55.2,0 102.8,42 102.8,107.4 0,14.7 -1.9,27.9 -5.5,39.6 h 18.7 l 0.2,-0.6 c 3.1,-12.1 4.6,-25.2 4.6,-39 C 491.5,169.5 438.4,117 370.7,117"
   id="path6" />
</g>
</svg>
